<svg width="512" height="512" xmlns="http://www.w3.org/2000/svg">
 <!-- Created with UXWing SVG Editor - https://uxwing.com/svg-icon-editor/ -->

 <g>
  <title>background</title>
  <rect fill="none" id="canvas_background" height="514" width="514" y="-1" x="-1"/>
  <g display="none" overflow="visible" y="0" x="0" height="100%" width="100%" id="canvasGrid">
   <rect fill="url(#gridpattern)" stroke-width="0" y="0" x="0" height="100%" width="100%"/>
  </g>
 </g>
 <g>
  <title>Layer 1</title>
  <defs>
   <style>.a{fill-rule:evenodd;}</style>
  </defs>
  <g id="svg_12">
   <path fill="#0a89c9" id="svg_11" d="m204.485734,214.730554a12.962962,12.962962 0 1 1 -13.020832,12.962962a12.962962,12.962962 0 0 1 12.962962,-12.962962l0.05787,0zm-53.530089,-69.135797l210.088719,0a13.503085,13.503085 0 0 1 13.503085,13.503085l0,140.547829a13.503085,13.503085 0 0 1 -13.503085,13.503085l-102.932091,0l-50.945212,37.789349c-9.645061,9.182098 -18.267746,14.969135 -24.845677,15.432098c-9.645061,0.578704 -14.679783,-5.979938 -13.503085,-22.299381l0,-30.864195l-17.862653,0a13.503085,13.503085 0 0 1 -13.503085,-13.503085l0,-140.605699a13.503085,13.503085 0 0 1 13.503085,-13.503085zm210.088719,13.117283l-210.088719,0a0.327932,0.327932 0 0 0 -0.385802,0.385802l0,140.547829a0.327932,0.327932 0 0 0 0.385802,0.270062l24.382714,0a6.558641,6.558641 0 0 1 6.558641,6.558641l0,37.596448l0,0a4.031635,4.031635 0 0 1 0,0.482253c-0.443673,6.076388 -0.520833,8.641975 -0.327932,8.622685c3.22145,-0.192901 9.201388,-4.74537 16.878857,-12.037036l0.617284,-0.501543l52.584873,-39.043207a6.481481,6.481481 0 0 1 4.320987,-1.678241l105.073294,0a0.327932,0.327932 0 0 0 0.327932,-0.327932l0,-140.489958a0.327932,0.327932 0 0 0 -0.327932,-0.327932l0,-0.05787zm-107.002307,55.999224a12.962962,12.962962 0 1 1 -12.982252,12.962962a12.962962,12.962962 0 0 1 12.982252,-12.962962zm49.556323,0a12.962962,12.962962 0 1 1 -12.982252,12.962962a12.962962,12.962962 0 0 1 12.982252,-12.962962z" class="a"/>
  </g>
 </g>
</svg>